<?xml version="1.0" standalone="no"?><!DOCTYPE svg PUBLIC "-//W3C//DTD SVG 1.1//EN" "http://www.w3.org/Graphics/SVG/1.1/DTD/svg11.dtd"><svg t="1581520013207" class="icon" viewBox="0 0 1024 1024" version="1.1" xmlns="http://www.w3.org/2000/svg" p-id="5417" xmlns:xlink="http://www.w3.org/1999/xlink" width="200" height="200"><defs><style type="text/css"></style></defs><path d="M593.917952 387.454976h-144.723968c-11.309056 0-20.48-9.168896-20.48-20.48v-69.632c0-11.311104 9.170944-20.48 20.48-20.48h144.723968c11.309056 0 20.48 9.168896 20.48 20.48v69.632c0 11.309056-9.170944 20.48-20.48 20.48z m-124.243968-40.96h103.763968v-28.672h-103.763968v28.672z" fill="#FFCC4A" p-id="5418" data-spm-anchor-id="a313x.7781069.0.i19" class=""></path><path d="M794.621952 402.673664H263.50592v-55.922688h531.116032zM794.621952 720.914432c0 16.295936-11.001856 29.507584-24.576 29.507584H288.08192c-13.574144 0-24.576-13.211648-24.576-29.507584V453.443584c0-16.295936 11.001856-29.507584 24.576-29.507584h481.964032c13.574144 0 24.576 13.211648 24.576 29.507584v267.470848z" fill="#FFCC4A" p-id="5419" data-spm-anchor-id="a313x.7781069.0.i18" class=""></path><path d="M496.984064 517.046272h49.143808v166.572032h-49.143808z" fill="#ffffff" p-id="5420" data-spm-anchor-id="a313x.7781069.0.i24" class=""></path><path d="M438.269952 575.760384h166.572032v49.143808h-166.572032z" fill="#ffffff" p-id="5421" data-spm-anchor-id="a313x.7781069.0.i23" class=""></path></svg>