<?xml version="1.0" standalone="no"?><!DOCTYPE svg PUBLIC "-//W3C//DTD SVG 1.1//EN" "http://www.w3.org/Graphics/SVG/1.1/DTD/svg11.dtd"><svg t="1584691897268" class="icon" viewBox="0 0 1024 1024" version="1.1" xmlns="http://www.w3.org/2000/svg" p-id="6147" xmlns:xlink="http://www.w3.org/1999/xlink" width="128" height="128"><defs><style type="text/css"></style></defs><path d="M395.52 625.877333a28.245333 28.245333 0 0 1-37.546667-11.477333l-1.834666-4.053333-77.568-170.581334a20.181333 20.181333 0 0 1 0-6.186666 13.952 13.952 0 0 1 14.293333-13.994667 13.013333 13.013333 0 0 1 8.362667 2.816l93.013333 65.152a42.197333 42.197333 0 0 0 23.296 7.125333 38.144 38.144 0 0 0 14.592-2.816l428.672-192a457.813333 457.813333 0 0 0-348.629333-150.442666C276.394667 149.418667 85.333333 308.565333 85.333333 506.453333a334.08 334.08 0 0 0 147.626667 268.629334 28.245333 28.245333 0 0 1 10.24 31.018666l-19.2 72.576a40.32 40.32 0 0 0-2.176 10.24 13.952 13.952 0 0 0 14.250667 14.250667 17.664 17.664 0 0 0 8.106666-2.474667l93.013334-53.973333c6.826667-4.181333 14.634667-6.442667 22.656-6.485333 4.224 0 8.405333 0.597333 12.373333 1.834666 45.354667 12.8 92.202667 19.285333 139.306667 19.2 235.733333 0 427.093333-159.104 427.093333-355.413333a308.309333 308.309333 0 0 0-46.805333-165.674667L398.933333 624l-3.413333 1.877333z" p-id="6148" fill="#69c701"></path></svg>