<?xml version="1.0" standalone="no"?><!DOCTYPE svg PUBLIC "-//W3C//DTD SVG 1.1//EN" "http://www.w3.org/Graphics/SVG/1.1/DTD/svg11.dtd"><svg t="1583392563472" class="icon" viewBox="0 0 1024 1024" version="1.1" xmlns="http://www.w3.org/2000/svg" p-id="770" xmlns:xlink="http://www.w3.org/1999/xlink" width="200" height="200"><defs><style type="text/css"></style></defs><path d="M569.2 511.4c-10.2 0-20.4 9.5-20.4 21.2 0 9.5 10.2 19 20.4 19 15.3 0 26.3-9.5 26.3-19 0-11.7-10.9-21.2-26.3-21.2z m-67.1-98.5c16.1 0 26.3-10.2 26.3-25.5 0-16.1-10.2-25.5-26.3-25.5-15.3 0-29.9 9.5-29.9 25.5 0 15.3 14.6 25.5 29.9 25.5z m8.1-349c-247.3 0-447.8 200.5-447.8 447.8s200.5 447.8 447.8 447.8S958 759 958 511.7 757.5 63.9 510.2 63.9z m-84.7 561.3c-27 0-46.7-4.4-72.2-11.7l-73.7 37.2 21.2-62.7c-51.8-36.5-82.4-82.4-82.4-138.6 0-99.2 93.4-175.1 207.2-175.1 100.7 0 190.4 59.8 207.9 144.5-7.3-1.5-13.9-2.2-19.7-2.2-99.2 0-175.8 74.4-175.8 164.2 0 15.3 2.2 29.2 5.8 43.8-5.9 0.6-12.4 0.6-18.3 0.6z m304.3 71.5l14.6 52.5-55.4-31.4c-21.2 4.4-41.6 10.9-62.7 10.9-97.8 0-175.1-67.1-175.1-150.3s77.3-150.3 175.1-150.3c92.7 0 175.8 67.1 175.8 150.3-0.1 46.8-31.5 88.4-72.3 118.3zM357.7 361.8c-15.3 0-31.4 9.5-31.4 25.5 0 15.3 16 25.5 31.4 25.5 14.6 0 26.3-10.2 26.3-25.5-0.1-16-11.7-25.5-26.3-25.5z m326.1 149.6c-10.9 0-20.4 9.5-20.4 21.2 0 9.5 9.5 19 20.4 19 14.6 0 25.5-9.5 25.5-19 0-11.7-10.9-21.2-25.5-21.2z" p-id="771" fill="#1afa29"></path></svg>