<?xml version="1.0" standalone="no"?><!DOCTYPE svg PUBLIC "-//W3C//DTD SVG 1.1//EN" "http://www.w3.org/Graphics/SVG/1.1/DTD/svg11.dtd"><svg t="1584603275780" class="icon" viewBox="0 0 1125 1024" version="1.1" xmlns="http://www.w3.org/2000/svg" p-id="1802" xmlns:xlink="http://www.w3.org/1999/xlink" width="140.625" height="128"><defs><style type="text/css"></style></defs><path d="M403.219938 806.439875C181.193769 806.439875 0 625.246106 0 403.219938 0 181.193769 181.193769 0 403.219938 0s403.219938 181.193769 403.219937 403.219938c0 222.026168-181.193769 403.219938-403.219937 403.219937z m0-801.335825C183.745794 5.10405 5.10405 183.745794 5.10405 403.219938s178.641745 398.115888 398.115888 398.115888 398.115888-178.641745 398.115888-398.115888-178.641745-398.115888-398.115888-398.115888z" fill="#FFFFFF" opacity=".83" p-id="1803"></path><path d="M403.219938 729.879128C223.302181 729.879128 76.560748 583.137695 76.560748 403.219938 76.560748 223.302181 223.302181 76.560748 403.219938 76.560748c179.917757 0 326.65919 146.741433 326.65919 326.65919 0 179.917757-146.741433 326.65919-326.65919 326.65919z m0-648.21433c-177.365732 0-321.55514 144.189408-321.55514 321.55514s144.189408 321.55514 321.55514 321.55514 321.55514-144.189408 321.55514-321.55514S580.58567 81.664798 403.219938 81.664798z" fill="#FFFFFF" opacity=".4" p-id="1804"></path><path d="M403.219938 663.52648c-143.551402 0-260.306542-116.75514-260.306542-260.306542 0-143.551402 116.75514-260.306542 260.306542-260.306542 143.551402 0 260.306542 116.75514 260.306542 260.306542C663.52648 546.77134 546.77134 663.52648 403.219938 663.52648z m0-515.509035c-140.999377 0-255.202492 114.203115-255.202493 255.202493s114.203115 255.202492 255.202493 255.202492 255.202492-114.203115 255.202492-255.202492-114.203115-255.202492-255.202492-255.202493z" fill="#FFFFFF" opacity=".4" p-id="1805"></path><path d="M403.219938 571.653583c-93.14891 0-168.433645-75.284735-168.433645-168.433645s75.284735-168.433645 168.433645-168.433645c93.14891 0 168.433645 75.284735 168.433645 168.433645S496.368847 571.653583 403.219938 571.653583z m0-331.76324c-89.958879 0-163.329595 73.370717-163.329595 163.329595 0 89.958879 73.370717 163.329595 163.329595 163.329595 89.958879 0 163.329595-73.370717 163.329595-163.329595 0-89.958879-73.370717-163.329595-163.329595-163.329595z" fill="#FFFFFF" opacity=".4" p-id="1806"></path><path d="M704.358879 270.514642m-22.968225 0a22.968224 22.968224 0 1 0 45.936449 0 22.968224 22.968224 0 1 0-45.936449 0Z" fill="#FFFFFF" p-id="1807"></path><path d="M319.641121 738.811215l-45.936448 285.188785H491.264798l-50.402493-280.722741z" fill="#E6D2DD" p-id="1808"></path><path d="M319.641121 773.901558l17.864175-289.654829 117.393146 8.294081-14.674143 290.292835c-29.348287 7.018069-52.316511 10.2081-69.542679 8.932087-17.226168-0.638006-33.81433-7.018069-51.040499-17.864174z" fill="#EBDEE9" p-id="1809"></path><path d="M411.514019 442.138318c-15.950156 17.226168-28.71028 25.520249-37.642368 25.520249-13.398131 0-42.108411-34.452336-34.452336-72.094704s-4.466044-61.886604 17.864174-61.886604 79.112773-3.190031 69.542679 37.642367c-2.552025 10.846106 1.276012 22.330218 0 31.900312-1.914019 9.570093-6.380062 22.330218-15.312149 38.91838z" fill="#E4C1B1" p-id="1810"></path><path d="M514.871028 994.013707c-65.714642-123.773209-98.25296-207.352025-98.252959-250.736448 0-65.076636-21.692212-230.958255 5.742056-275.618692 17.864174-29.986293 36.366355 28.71028 55.506542 175.451713l169.071651 292.206854-132.06729 58.696573zM282.63676 941.697196s26.158255-98.890966 26.158256-117.393146 64.438629-299.862928 51.040498-326.021184-67.62866 49.764486-77.198754 82.94081c-6.380062 22.330218-41.470405 156.311526-105.271028 401.943925 56.144548 7.018069 84.216822 10.846106 84.216823 10.846106l21.054205-52.316511z" fill="#FFFFFF" p-id="1811"></path><path d="M132.705296 805.163863l29.348287 62.524611c68.266667-42.108411 104.633022-74.646729 107.185046-97.614954 3.190031-22.968224 15.950156-100.166978 39.556387-231.596261-31.262305 89.958879-57.420561 151.207477-79.112773 183.745794-21.692212 33.176324-54.23053 60.610592-96.976947 82.94081z" fill="#FFFFFF" p-id="1812"></path><path d="M135.257321 815.371963c-24.882243 1.276012-40.832399 5.742056-48.488474 14.036137s-14.674143 20.416199-22.968224 37.004361c16.588162-1.276012 28.072274-6.380062 35.728349-14.036137s16.588162-11.484112 26.796262-11.484112c-19.140187 17.226168-24.882243 25.520249-18.502181 25.520249 9.570093 0 42.746417-9.570093 42.746417-14.036137 0 0 1.276012-4.466044 1.276013-5.10405-0.638006-2.552025-5.10405-13.398131-13.398131-32.538318" fill="#E4C1B1" p-id="1813"></path><path d="M366.215576 467.658567v25.520249c11.484112 9.570093 21.054206 14.674143 28.710281 15.31215s19.140187-0.638006 32.538317-5.10405l-12.122118-83.578816-49.12648 47.850467z" fill="#DDB5A3" p-id="1814"></path><path d="M338.143302 673.734579l-29.348286-95.062928 29.348286-13.398131-29.348286-38.280374 29.348286-42.746417 28.072274 8.294081c-2.552025 25.520249-5.742056 49.764486-9.570093 72.73271s-10.2081 59.334579-18.502181 108.461059z" fill="#F8F8F8" p-id="1815"></path><path d="M428.102181 494.454829c-5.742056-5.742056-8.932087-13.398131-8.932088-22.968225 0-14.674143-7.656075-13.398131-7.656074-27.434268s0-15.950156 4.466043-24.244236 7.018069-15.950156 0-20.4162-22.330218-23.606231-14.674143-43.384423c3.190031-8.932087-10.2081-1.914019-26.158255-5.10405-5.10405-1.276012-12.760125-5.742056-22.330219-14.674144-5.742056 9.570093-8.294081 21.054206-8.294081 35.090343 0 21.054206 2.552025 81.026791 17.226169 85.492835s38.280374 70.818692 10.846106 59.972586-53.592523-27.434268-42.108412-42.108411c6.380062-8.932087 7.018069-13.398131 8.294081-17.226169 0.638006-3.190031 4.466044-6.380062 0-8.932087-11.484112-6.380062-34.452336-21.054206-28.072274-28.072274s14.674143-26.158255 19.778193-32.538318-22.330218-46.574455-11.484112-54.868536 21.054206-28.71028 33.81433-26.158255 19.778193-40.832399 63.162617-19.140187 21.054206 11.484112 36.366355 14.674143 32.538318-6.380062 38.280374 12.122119-1.914019 34.452336 14.674144 34.452336 29.348287 6.380062 26.158255 33.176324 22.330218 28.072274 16.588162 45.298442-22.330218 44.660436-29.986293 44.660437-13.398131 38.91838-32.538318 37.004361-19.140187 10.846106-30.624299 8.294081c-7.656075-2.552025-16.588162-10.2081-26.796261-22.968224z" fill="#2E2E2E" p-id="1816"></path><path d="M440.862305 532.097196c34.452336 100.804984 65.076636 151.207477 90.596885 151.207477s70.180685-31.900312 132.705296-96.338941l-19.778193-53.592523-101.442991 81.664797c-48.488474-93.14891-79.750779-139.085358-94.424922-139.085358s-16.588162 18.502181-7.656075 56.144548z" fill="#FFFFFF" p-id="1817"></path><path d="M354.093458 333.677259c-7.018069 7.656075 0.638006 54.868536 35.728349 54.868535 14.036137 0 26.158255 8.932087 35.728349 18.502181-1.914019 8.932087-7.018069 20.416199-14.036137 34.452337-15.950156 17.226168-28.71028 25.520249-37.642368 25.520249-13.398131 0-42.108411-34.452336-34.452336-72.094704 7.018069-36.366355-3.190031-59.334579 14.674143-61.248598z" fill="#E4C1B1" p-id="1818"></path><path d="M460.002492 596.535826l-24.244237-31.262306 38.280374-42.108411-30.624299-47.212461-24.244237-4.466044c-7.018069 24.244237-10.846106 46.574455-12.760124 67.628661-1.276012 21.054206 1.276012 70.180685 7.656075 148.017445l45.936448-90.596884z" fill="#F8F8F8" p-id="1819"></path><path d="M644.386293 534.011215c10.2081-14.036137 15.31215-22.330218 15.312149-25.520249 0-1.276012 0.638006-2.552025 1.914019-3.828038 1.914019-2.552025 5.742056-2.552025 8.294081-0.638006 1.276012 1.276012 1.914019 2.552025 1.914019 4.466044 0 2.552025-8.932087 25.520249 10.846106 25.520249s56.782555-10.846106 52.316511 0-16.588162 32.538318-34.452337 32.538318c-11.484112 0-26.158255 0-43.384424-0.638007l-12.760124-31.900311z" fill="#E4C1B1" p-id="1820"></path><path d="M410.939813 584.113844l-5.10405-3.828037c27.434268-40.194393 39.556386-77.198754 32.538318-102.080997l6.380062-1.914019c7.018069 27.434268-4.466044 65.714642-33.81433 107.823053z m-65.714642-1.276012c-5.742056-39.556386-7.656075-65.714642-5.742056-79.750779l6.380063 0.638006c-1.914019 13.398131 0 39.556386 5.742056 77.83676l-6.380063 1.276013z" fill="#36316D" p-id="1821"></path><path d="M405.197757 583.475838m-15.950156 0a15.950156 15.950156 0 1 0 31.900312 0 15.950156 15.950156 0 1 0-31.900312 0Z" fill="#383F4A" p-id="1822"></path><path d="M405.197757 583.475838m-9.570093 0a9.570093 9.570093 0 1 0 19.140186 0 9.570093 9.570093 0 1 0-19.140186 0Z" fill="#FFFFFF" p-id="1823"></path><path d="M362.45134 661.950604c-0.638006 0-1.914019-0.638006-2.552025-1.276012-19.778193-24.244237-28.71028-42.746417-28.072275-56.144548 0.638006-14.036137 7.018069-22.330218 18.502181-25.52025h1.276013c19.778193 1.276012 31.900312 10.846106 35.090342 28.710281 3.190031 17.226168 3.828037 29.986293 1.914019 38.91838-0.638006 1.914019-1.914019 2.552025-3.828037 2.552025s-3.190031-1.914019-3.190032-3.190031c1.914019-8.294081 1.276012-20.416199-1.914018-36.366356-2.552025-14.674143-12.122118-22.330218-28.710281-23.60623-8.294081 2.552025-12.760125 8.932087-13.39813 19.778193-0.638006 11.484112 8.294081 28.71028 26.796261 51.678505 1.276012 1.276012 0.638006 3.190031-0.638006 4.466043h-1.276012z" fill="#36316D" p-id="1824"></path><path d="M378.975701 647.576324c0-2.552025 1.914019-12.760125 3.190031-15.950156 1.914019-3.828037 6.380062-1.914019 7.018069 1.276013 1.276012 6.380062 4.466044 21.054206 1.276012 22.330218-1.914019 0.638006-8.932087 0.638006-9.570093 0-1.914019 0-1.914019-1.276012-1.914019-7.656075z" fill="#383F4A" p-id="1825"></path><path d="M354.731464 660.336449c-1.276012-1.914019-5.742056-11.484112-6.380062-14.674144-0.638006-3.828037 4.466044-5.10405 7.018068-3.190031 4.466044 4.466044 15.31215 14.674143 14.036137 17.864175-0.638006 1.276012-7.018069 5.10405-8.294081 5.742056-1.914019 0-2.552025-0.638006-6.380062-5.742056z" fill="#383F4A" p-id="1826"></path></svg>