<?xml version="1.0" standalone="no"?><!DOCTYPE svg PUBLIC "-//W3C//DTD SVG 1.1//EN" "http://www.w3.org/Graphics/SVG/1.1/DTD/svg11.dtd"><svg t="1584603581559" class="icon" viewBox="0 0 1024 1024" version="1.1" xmlns="http://www.w3.org/2000/svg" p-id="2108" xmlns:xlink="http://www.w3.org/1999/xlink" width="128" height="128"><defs><style type="text/css"></style></defs><path d="M548.406789 149.299525l-6.491284 168.773375-51.930269-16.228209-3.245642-141.18542z" fill="#D0A592" p-id="2109"></path><path d="M561.389356 662.110935v298.599049h25.965135V662.110935h-25.965135z" fill="#A97B3C" p-id="2110"></path><path d="M475.379848 189.870048c-14.605388 0-22.719493-30.833597-22.719493-76.272584 0-16.228209-4.868463-43.816165 0-58.421553 8.114105-29.210777 38.947702-42.193344 69.781299-42.193344 47.061807 0 84.386688 37.324881 84.386688 84.386688s-116.843106 92.500792-131.448494 92.500793z" fill="#E4C1B1" p-id="2111"></path><path d="M567.88064 702.681458c105.48336 6.491284 165.527734-6.491284 180.133122-37.324881 21.096672-45.438986 30.833597-98.992076-37.324881-116.843106s-199.606973-47.061807-246.66878 14.605388-25.965135 94.123613 17.85103 123.33439c11.359746 6.491284 40.570523 11.359746 86.009509 16.228209z" fill="#FEBD67" p-id="2112"></path><path d="M452.660355 50.307448c8.114105 0 14.605388 1.622821 17.85103 4.868463 6.491284 4.868463 3.245642 17.85103 16.228209 22.719493 12.982567 4.868463 38.947702-1.622821 47.061807 14.605388 0 4.868463 25.965135-14.605388 27.587955 4.868463s-19.473851 21.096672-19.473851 32.456419c0 25.965135-1.622821 50.307448 4.868463 60.044374 55.175911 82.763867 113.597464 40.570523 123.33439 4.868462 11.359746-42.193344-58.421553-14.605388-69.7813-42.193344-3.245642-8.114105 16.228209-35.70206 16.22821-51.930269C616.565268 48.684628 577.617566 16.228209 561.389356 12.982567c-56.798732-16.228209-92.500792-3.245642-108.729001 37.324881z" fill="#1F2D49" p-id="2113"></path><path d="M700.951955 566.364501c27.587956 50.307448 21.096672 79.518225-17.85103 87.632329-38.947702 9.736926-115.220285 19.473851-227.194928 29.210777v308.335975l-74.649763-6.491284C335.817249 756.234548 316.343398 632.900158 322.834681 618.29477c6.491284-16.228209 95.746434-50.307448 271.011094-105.48336l107.10618 53.553091z" fill="#8987F7" p-id="2114"></path><path d="M452.660355 331.055468c-27.587956 47.061807-40.570523 53.55309-74.649763 43.816164-22.719493-6.491284-55.175911-48.684628-98.992076-124.95721-6.491284-6.491284-11.359746-12.982567-11.359746-22.719493 0-12.982567 4.868463-19.473851 8.114105-19.473851 0 0 3.245642 14.605388 6.491283 14.605388 4.868463 1.622821 6.491284-8.114105 11.359747-4.868463 4.868463 3.245642 0 12.982567-4.868463 19.473851v4.868463c-4.868463 8.114105 29.210777 38.947702 100.614897 94.123613l22.719493-38.947702c45.438986-9.736926 58.421553 1.622821 40.570523 34.07924z" fill="#F9CFB3" p-id="2115"></path><path d="M275.772875 81.141046v121.711569c11.359746 1.622821 21.096672 8.114105 21.096672 19.473851v3.245642c0 4.868463 0 11.359746-1.622821 17.85103l66.535657 55.175911v-50.307448l-1.622821 4.868462-24.342313-12.982567 4.868462-30.833597-6.491283 9.736925-25.965135-9.736925v-24.342314l-8.114105 9.736925-24.342313-8.114104 3.245641-9.736926 16.22821 6.491284 21.096672-25.965135v43.816165l12.982567 4.868463 25.965135-37.324881-9.736926 64.912836 16.228209 8.114105V150.922345L275.772875 81.141046z" fill="#FFFFFF" p-id="2116"></path><path d="M546.783968 191.492868c0 9.736926-3.245642 21.096672-9.736925 37.324882-6.491284 14.605388-14.605388 35.70206-27.587956 61.667195-6.491284-25.965135-11.359746-47.061807-16.228209-64.912837S486.739594 194.73851 486.739594 191.492868c-12.982567 8.114105-22.719493 16.228209-25.965135 22.719493-27.587956 51.930269-42.193344 63.290016-63.290015 100.614897 4.868463 0 11.359746 24.342314 50.307448 43.816165 1.622821 1.622821 9.736926-3.245642 22.719493-11.359746-48.684628 42.193344-64.912837 97.369255-47.061807 165.527733s55.175911 94.123613 113.597465 77.895405l167.150554-14.605389-35.70206-204.475436 55.175911-21.096671c-34.079239-87.63233-68.158479-136.316957-98.992076-146.053883s-58.421553-14.605388-77.895404-12.982568z" fill="#8987F7" p-id="2117"></path><path d="M717.180165 353.77496c-4.868463 92.500792-9.736926 142.808241-12.982568 149.299525-4.868463 11.359746-98.992076 48.684628-120.088748 56.798732-1.622821 0-19.473851 14.605388-22.719493 16.228209-3.245642 1.622821-6.491284 4.868463-9.736925 3.245642s1.622821-4.868463 1.622821-6.491284l-6.491284 1.622821c-6.491284 3.245642-27.587956 12.982567-27.587956 9.736926-1.622821-3.245642 9.736926-21.096672 19.473851-25.965135 8.114105-3.245642 22.719493-6.491284 25.965135-8.114104 9.736926-4.868463 45.438986-30.833597 107.106181-79.518225l-3.245642-100.614897 48.684628-16.22821z" fill="#F9CFB3" p-id="2118"></path><path d="M632.793477 1004.526149c0 6.491284-1.622821 11.359746-3.245642 17.85103h92.500792c1.622821-21.096672-8.114105-42.193344-27.587955-56.798732-22.719493-16.228209-53.55309-14.605388-74.649763 1.622821 8.114105 9.736926 12.982567 22.719493 12.982568 37.324881zM506.213445 1022.377179c-1.622821-4.868463-3.245642-11.359746-3.245642-17.85103 0-14.605388 4.868463-27.587956 12.982568-37.324881-22.719493-16.228209-53.55309-17.85103-76.272584 0-17.85103 12.982567-27.587956 34.079239-25.965134 55.175911h92.500792z" fill="#816142" p-id="2119"></path><path d="M470.511385 1024c0-51.930269 42.193344-94.123613 94.123613-94.123613s94.123613 42.193344 94.123614 94.123613" fill="#816142" p-id="2120"></path></svg>