<?xml version="1.0" standalone="no"?><!DOCTYPE svg PUBLIC "-//W3C//DTD SVG 1.1//EN" "http://www.w3.org/Graphics/SVG/1.1/DTD/svg11.dtd"><svg t="1584603557084" class="icon" viewBox="0 0 2026 1024" version="1.1" xmlns="http://www.w3.org/2000/svg" p-id="1959" xmlns:xlink="http://www.w3.org/1999/xlink" width="253.25" height="128"><defs><style type="text/css"></style></defs><path d="M691.2 618.666667c-4.266667-2.133333-6.4-8.533333-8.533333-17.066667-4.266667-14.933333 6.4-36.266667 23.466666-42.666667s93.866667-40.533333 104.533334-14.933333c8.533333 17.066667 14.933333 42.666667 21.333333 76.8h-140.8z" fill="#FFFFFF" p-id="1960"></path><path d="M889.6 544c-17.066667 2.133333-29.866667 2.133333-36.266667 2.133333-8.533333 0-25.6-4.266667-29.866666-4.266666-44.8-12.8-78.933333-4.266667-87.466667 0-14.933333 8.533333-12.8 14.933333-2.133333 14.933333s49.066667-2.133333 61.866666 0c10.666667 2.133333 8.533333 14.933333 8.533334 21.333333s-17.066667 4.266667-23.466667 4.266667c-6.4 0-14.933333 14.933333 4.266667 14.933333H896" fill="#E4C1B1" p-id="1961"></path><path d="M1450.666667 618.666667c164.266667 0 298.666667 134.4 298.666666 298.666666v64H1152v-64c0-164.266667 134.4-298.666667 298.666667-298.666666z" fill="#EDA547" p-id="1962"></path><path d="M1297.066667 341.333333c-38.4 10.666667-64 21.333333-74.666667 29.866667-70.4 57.6-87.466667 102.4-98.133333 102.4-17.066667 0-253.866667 14.933333-264.533334 49.066667-2.133333 8.533333-4.266667 17.066667-4.266666 27.733333-2.133333 14.933333 0 42.666667 4.266666 83.2l273.066667 6.4c96-36.266667 145.066667-64 149.333333-83.2 4.266667-19.2 25.6 36.266667 66.133334 164.266667-160-8.533333-253.866667-4.266667-283.733334 12.8-29.866667 17.066667-66.133333 106.666667-110.933333 266.666666h228.266667l6.4-23.466666c4.266667-14.933333 19.2-27.733333 36.266666-27.733334 14.933333 0 27.733333 12.8 27.733334 27.733334v21.333333h215.466666v-49.066667h61.866667c68.266667-100.266667 108.8-155.733333 121.6-166.4 10.666667-8.533333 10.666667-29.866667 0-64l-12.8-78.933333h168.533333c44.8-34.133333 59.733333-59.733333 42.666667-76.8-14.933333-17.066667-70.4-68.266667-166.4-155.733333-55.466667-46.933333-106.666667-68.266667-153.6-68.266667-46.933333 2.133333-125.866667 2.133333-232.533333 2.133333z" fill="#FFFFFF" p-id="1963"></path><path d="M1260.8 138.666667c-44.8-19.2-57.6-38.4-34.133333-61.866667 34.133333-36.266667 66.133333-53.333333 104.533333-66.133333 38.4-10.666667 104.533333-23.466667 132.266667 27.733333s40.533333 147.2 19.2 164.266667-25.6 142.933333-145.066667 115.2c-78.933333-21.333333-104.533333-81.066667-76.8-179.2z" fill="#1F2D49" p-id="1964"></path><path d="M1610.666667 746.666667c76.8 0 138.666667 61.866667 138.666666 138.666666V1002.666667H1472v-117.333334c0-76.8 61.866667-138.666667 138.666667-138.666666z" fill="#FEBD67" p-id="1965"></path><path d="M1320.533333 294.4c-53.333333 6.4-78.933333-6.4-78.933333-42.666667 0-53.333333-17.066667-155.733333 23.466667-145.066666 27.733333 6.4 59.733333 6.4 93.866666 0-10.666667 46.933333-8.533333 76.8 8.533334 85.333333 23.466667 14.933333 10.666667-27.733333 42.666666-21.333333 32 6.4 17.066667 51.2 0 70.4-10.666667 12.8-10.666667 49.066667 0 110.933333-19.2 4.266667-32 8.533333-42.666666 10.666667-10.666667 2.133333-25.6-6.4-46.933334-23.466667v-44.8z" fill="#E4C1B1" p-id="1966"></path><path d="M1322.666667 356.266667l-2.133334-61.866667c19.2-8.533333 36.266667-14.933333 44.8-17.066667 10.666667-2.133333 23.466667-12.8 38.4-32l12.8 104.533334c-19.2 23.466667-34.133333 36.266667-46.933333 36.266666-10.666667-2.133333-27.733333-10.666667-46.933333-29.866666z" fill="#D0A592" p-id="1967"></path><path d="M1320.533333 337.066667l57.6 134.4c10.666667-32 21.333333-59.733333 27.733334-81.066667 6.4-21.333333 10.666667-38.4 12.8-49.066667h34.133333l40.533333 49.066667-40.533333 32 29.866667 36.266667-91.733334 181.333333-123.733333-172.8 32-38.4L1258.666667 405.333333l12.8-57.6c10.666667-4.266667 19.2-6.4 25.6-6.4s12.8-2.133333 23.466666-4.266666z" fill="#F8F8F8" p-id="1968"></path><path d="M320 21.333333h512c46.933333 0 85.333333 38.4 85.333333 85.333334v275.2c0 46.933333-38.4 85.333333-85.333333 85.333333H320c-46.933333 0-85.333333-38.4-85.333333-85.333333V106.666667c0-46.933333 38.4-85.333333 85.333333-85.333334zM501.333333 467.2h128V618.666667h-128z" fill="#FFFFFF" p-id="1969"></path><path d="M2026.666667 618.666667v21.333333H1580.8l91.733333 377.6-21.333333 6.4L1557.333333 640H411.733333l-93.866666 384-21.333334-6.4L388.266667 640H0v-21.333333h2026.666667z" fill="#503B75" p-id="1970"></path><path d="M1326.933333 347.733333c-23.466667 0-64-29.866667-78.933333-68.266666-2.133333-2.133333 0-6.4 2.133333-6.4 2.133333-2.133333 6.4 0 6.4 2.133333 14.933333 34.133333 51.2 59.733333 70.4 59.733333 64 0 74.666667-72.533333 74.666667-115.2 0-2.133333 2.133333-4.266667 4.266667-4.266666s4.266667 2.133333 4.266666 4.266666c0 83.2-29.866667 128-83.2 128z" fill="#0F1A30" p-id="1971"></path><path d="M1408 245.333333c-17.066667 0-32-14.933333-32-32s14.933333-32 32-32 32 14.933333 32 32-14.933333 32-32 32z m0-42.666666c-6.4 0-10.666667 4.266667-10.666667 10.666666s4.266667 10.666667 10.666667 10.666667 10.666667-4.266667 10.666667-10.666667-4.266667-10.666667-10.666667-10.666666zM1429.333333 601.6c-32 0-36.266667-17.066667-42.666666-32-4.266667-12.8-8.533333-25.6-27.733334-32-36.266667-10.666667-46.933333-76.8-36.266666-198.4 0-2.133333 2.133333-4.266667 6.4-4.266667 2.133333 0 4.266667 2.133333 4.266666 6.4-12.8 142.933333 10.666667 181.333333 29.866667 187.733334 23.466667 8.533333 29.866667 25.6 34.133333 38.4 6.4 14.933333 8.533333 25.6 38.4 23.466666 40.533333-2.133333 68.266667-2.133333 81.066667 0 2.133333 0 4.266667 4.266667 4.266667 6.4 0 2.133333-4.266667 4.266667-6.4 4.266667-12.8-2.133333-38.4-2.133333-78.933334 0H1429.333333z" fill="#0F1A30" p-id="1972"></path><path d="M1504 586.666667a32 21.333333 0 1 0 64 0 32 21.333333 0 1 0-64 0Z" fill="#0F1A30" p-id="1973"></path><path d="M1536 618.666667c-23.466667 0-42.666667-14.933333-42.666667-32s19.2-32 42.666667-32 42.666667 14.933333 42.666667 32-19.2 32-42.666667 32z m0-42.666667c-12.8 0-21.333333 6.4-21.333333 10.666667s8.533333 10.666667 21.333333 10.666666 21.333333-6.4 21.333333-10.666666-8.533333-10.666667-21.333333-10.666667z" fill="#0F1A30" p-id="1974"></path><path d="M1516.8 597.333333c14.933333 14.933333 29.866667 23.466667 49.066667 19.2s32-4.266667 36.266666 0c4.266667 2.133333 23.466667 4.266667 57.6 2.133334 6.4-29.866667 6.4-46.933333 0-49.066667-4.266667-2.133333-53.333333-17.066667-89.6-12.8-17.066667 0-68.266667 23.466667-53.333333 40.533333z" fill="#E4C1B1" p-id="1975"></path></svg>