<?xml version="1.0" standalone="no"?><!DOCTYPE svg PUBLIC "-//W3C//DTD SVG 1.1//EN" "http://www.w3.org/Graphics/SVG/1.1/DTD/svg11.dtd"><svg t="1584603590130" class="icon" viewBox="0 0 1024 1024" version="1.1" xmlns="http://www.w3.org/2000/svg" p-id="2253" xmlns:xlink="http://www.w3.org/1999/xlink" width="128" height="128"><defs><style type="text/css"></style></defs><path d="M469.296473 225.831533c11.055141 11.78784 15.645287 20.256984 13.770439 25.407429-2.736848 7.456294-11.85249 0.28015-18.166635 7.585594-16.830536 19.481184-12.45589 31.678474-20.149234 49.09086-8.619993 19.610484 48.91846 40.729467 83.010533 0 20.752633-24.78248 37.02287-47.366862 48.78916-67.731595-29.501926-25.730679-42.237966-46.677262-38.143469-62.839749 4.051397-16.162487-18.985535 0-69.110794 48.487461z" fill="#D0A592" p-id="2254"></path><path d="M538.385717 177.344072c-23.855831 41.893166-49.45721 62.839749-76.825687 62.839749-27.346928 0-49.15551-29.027826-65.447297-87.083479-10.774991-19.394984-13.468739-43.638715-8.081244-72.731191 8.081243-43.638715 91.436576-63.033699 105.659565-31.527624 5.064246 11.227541 39.716618 22.368882 47.884061 46.073862 4.740996 13.748889 3.663497 41.225117-3.189398 82.428683z" fill="#E4C1B1" p-id="2255"></path><path d="M400.961479 1003.829001c-16.248687-10.774991-32.109474-82.040783-47.560811-213.818926C235.349863 727.687525 209.209735 650.301538 274.937181 557.765913a352.988713 352.988713 0 0 1 81.502034-81.566683 530.840719 530.840719 0 0 1-2.262748-2.198099c-29.997576-29.006276-40.255367-60.900251-30.794925-72.407941 9.697492-11.80939 27.433128-36.89357 53.206907-75.252539 15.559087-30.600975 30.213075-51.181208 43.961964-61.71915 20.580233-15.817687 31.182825-4.137597 44.996363-6.594294 7.025294-1.249899-8.878593 69.692643-3.965196 68.313444 12.28349-3.447997 91.264176-100.509118 99.948818-100.509118 33.186973 0 31.678474 76.222288 31.678475 96.974921 0 20.731083-50.987259 136.131239-38.617569 200.996687 12.36969 64.865447 12.929989 57.193654 25.773779 116.369905 12.82224 59.176252-25.773779 209.83218-25.773779 264.051936 0 21.614632 0.1293 83.398432-16.205587 99.604019-35.686771 35.449721-113.051208 16.162487-137.424238 0z" fill="#28797A" p-id="2256"></path><path d="M568.663443 522.768742c-5.753845 12.929989-35.945371 56.741104-90.553027 131.368693-11.78784-1.982598-19.481184-2.930798-23.058481-2.844598-11.83094 0.32325-9.525092-5.646095-14.438488-2.736847-4.891846 2.909248 13.167039 12.06799 9.288042 12.886889-13.102389 2.844598-38.272769-2.973898-42.518115 0-4.266897 2.973898-9.740592 11.292191 9.050992 18.877785 18.791585 7.564044 30.234625 12.56364 40.126068 9.525092 6.960644-2.154998 19.287234-10.128492 36.95822-23.920481 67.516095-61.84845 105.099265-102.146917 112.771058-120.852301 11.529241-28.101177 25.321229-181.752552 12.64984-196.104841-5.775395-6.551195-23.834281-6.508095-42.388816 41.591466-8.663093 22.476632 0.775799 112.771058-7.887293 132.209143z" fill="#E4C1B1" p-id="2257"></path><path d="M522.18013 298.950624c25.493629 46.741912 34.523072 76.502438 27.088328 89.303127-7.434744 12.77914 0.58185 19.179484 24.049781 19.179484h51.849258c17.843386-60.447701 17.843386-96.608572 0-108.482611-26.786628-17.821836-58.077203-46.677262-75.899039-46.677262-11.89559 0-20.903483 15.559087-27.088328 46.677262z" fill="#28797A" p-id="2258"></path><path d="M702.251784 426.39722c-14.546238-22.993831-60.706301-29.458826-94.432023-88.527328-33.747273-59.090052-91.673626-180.373353-72.020042-182.571452 3.318697-0.36635 12.26194-10.818091 23.101582-2.198098 37.02287 29.372626 97.621421 93.182124 128.136195 144.040083 13.447189 22.433532 41.268216 40.729467 50.793309 80.920184 5.861595 24.69628 14.697088 122.7056 5.559896 122.705601-9.158743 0-26.571128-51.375158-41.138917-74.36899z" fill="#102652" p-id="2259"></path><path d="M502.267947 129.977211c4.245347 11.292191 6.982194 19.222584 8.188993 23.769631 6.378795 24.02823 9.460442 39.845918 14.287638 50.857958 30.299275 69.132344 60.663201 106.586213 75.920589 117.749105 19.933734 14.610888 26.571128 66.158446 19.869084 154.664224 40.664817 14.804838 60.98645 1.206799 60.98645-40.794117 0-62.969049 68.916844-96.780971 16.679686-150.332678-52.237158-53.551706-137.273388-87.880829-142.445384-121.908251-3.447997-22.670582-18.532985-45.685963-45.298063-69.067694l-8.188993 35.061822z" fill="#1F2D49" p-id="2260"></path><path d="M385.337742 48.841527c20.752633 59.607252 73.80869 97.492121 159.14662 113.654607 33.768823 6.400345 48.185761 56.353204 79.519436 77.687687 1.788649 1.228349 5.861595 26.247879 7.607144 27.390028 53.271557 34.824772-0.948199 53.314657 54.305955 85.66118 31.441424 18.403685 98.22482 134.040891 98.224821 87.708429 0-58.077203 22.261132-98.74202-66.373946-161.775718-88.613528-63.033699-130.097244-122.403901-130.097245-142.445385 0-19.998384-18.101985-107.275813-72.752741-126.196697-54.650756-18.920885-74.06729-9.180293-94.388923 6.809794-13.533389 10.645691-25.278129 21.140533-35.191121 31.506075z" fill="#1F2D49" p-id="2261"></path><path d="M396.112733 47.462328c-4.288447 29.717426-6.464995 49.995959-6.572745 60.814051-0.2586 24.35148 5.365946 39.910568 6.572745 44.823963 3.038548 12.28349-47.151362-41.225117-38.789969-72.731191 5.581445-21.011233 18.511435-31.980174 38.789969-32.906823z" fill="#1F2D49" p-id="2262"></path><path d="M243.021657 651.292837C232.569916 621.209062 229.100369 601.081378 232.569916 590.909786c3.491097-10.150042 15.774587-28.402877 36.87202-54.758505 35.794521-31.613824 54.564556-47.022062 56.310104-46.203163 1.163699 0.53875 43.401665-29.092476 30.687175-13.748888-4.309996 5.171996-28.553727 27.390028-72.774291 66.632545 9.481992 37.28147 9.481992 57.279853 0 59.973602-5.602995 1.594699-5.818495 17.347736-14.222988 28.295127-3.900547 5.085796-12.71449 11.80939-26.420279 20.192333z" fill="#F9CFB3" p-id="2263"></path></svg>